<?xml version="1.0" standalone="no"?>
<!DOCTYPE svg PUBLIC "-//W3C//DTD SVG 20010904//EN"
 "http://www.w3.org/TR/2001/REC-SVG-20010904/DTD/svg10.dtd">
<svg version="1.0" xmlns="http://www.w3.org/2000/svg"
 width="193.000000pt" height="193.000000pt" viewBox="0 0 193.000000 193.000000"
 preserveAspectRatio="xMidYMid meet">

<g transform="translate(0.000000,193.000000) scale(0.100000,-0.100000)"
fill="#000000" stroke="none">
<path d="M1525 1904 c-27 -29 -30 -45 -16 -73 8 -14 -8 -43 -75 -142 -47 -68
-89 -130 -93 -138 -7 -11 -14 -10 -42 5 -27 15 -57 19 -144 19 -97 0 -116 -3
-160 -24 -57 -29 -145 -114 -164 -160 -16 -37 -27 -39 -35 -7 -10 41 -103 133
-163 162 -74 36 -192 44 -279 19 -78 -23 -161 -103 -192 -187 -43 -116 -54
-274 -26 -369 33 -112 133 -266 238 -368 l45 -44 -184 -124 c-177 -119 -219
-156 -227 -198 -4 -25 28 -31 78 -15 20 7 119 68 220 137 124 83 190 122 202
118 9 -3 31 -18 49 -33 l32 -27 -105 -150 c-117 -167 -134 -198 -134 -250 0
-82 72 -22 205 172 59 87 111 162 115 166 3 4 37 -7 75 -25 l69 -32 91 48 c50
25 130 76 178 111 l87 65 174 0 174 0 26 -31 c33 -39 33 -69 0 -108 -25 -30
-28 -31 -112 -31 -111 0 -155 -12 -183 -51 -26 -37 -28 -99 -4 -136 30 -45 70
-54 240 -51 213 4 204 22 -13 28 -181 5 -190 8 -212 60 -10 24 -10 36 0 60 19
47 55 60 160 60 105 0 140 14 165 67 17 35 13 86 -8 113 -34 45 -55 50 -214
50 -84 0 -153 3 -153 6 0 4 31 39 69 79 81 86 142 173 184 264 26 56 31 81 35
164 l4 97 155 106 c111 75 159 102 166 95 29 -29 97 10 97 55 0 27 -65 121
-90 129 -30 10 -80 -30 -80 -64 0 -24 -16 -38 -128 -114 -71 -48 -131 -87
-134 -87 -4 0 -14 22 -23 49 -9 28 -25 61 -36 75 l-20 26 98 142 c88 128 101
142 127 143 23 0 34 8 49 32 25 43 16 63 -46 106 -64 44 -80 45 -112 11z m97
-35 c26 -17 48 -35 48 -41 0 -16 -20 -48 -31 -48 -8 0 -83 46 -108 67 -8 6 19
53 30 53 7 0 34 -14 61 -31z m-53 -83 c10 -12 -25 -69 -184 -300 -108 -157
-199 -286 -201 -286 -2 0 -1 19 2 43 5 32 46 100 183 300 96 141 178 257 182
257 4 0 12 -6 18 -14z m-991 -248 c23 -6 42 -12 42 -14 0 -2 -21 -25 -46 -51
-102 -107 -180 -256 -210 -405 -17 -82 -16 -312 1 -350 15 -35 -11 -17 -57 41
-44 53 -49 65 -59 137 -29 212 49 454 203 629 32 37 31 37 126 13z m579 -67
c27 -201 -20 -407 -133 -576 l-36 -56 -27 17 c-44 29 -121 98 -121 110 0 5 12
26 26 45 90 120 147 268 165 425 6 54 12 101 15 103 2 2 21 7 41 11 48 8 59
-4 70 -79z m707 37 c33 -49 34 -53 19 -70 -25 -28 -40 -22 -78 35 l-35 52 21
18 c12 9 25 17 30 17 5 0 24 -23 43 -52z m-1441 30 c-141 -179 -203 -344 -203
-542 0 -114 -8 -116 -46 -12 -42 116 -29 298 30 415 42 82 131 147 205 150 17
1 21 -2 14 -11z m852 -2 c19 -8 35 -18 35 -21 0 -5 -72 -116 -86 -134 -12 -14
-33 29 -38 80 -4 33 -10 67 -13 75 -7 19 56 19 102 0z m-270 -88 c-14 -144
-66 -284 -149 -402 l-40 -58 -27 31 c-56 67 -56 72 -11 158 22 43 50 107 61
143 12 36 33 82 46 102 24 37 98 98 118 98 5 0 6 -28 2 -72z m-303 15 l37 -36
-50 -54 c-91 -100 -165 -248 -195 -386 -19 -92 -19 -252 0 -347 9 -40 14 -75
13 -76 -1 -2 -24 15 -49 37 -43 36 -48 46 -65 117 -23 100 -22 271 1 367 28
114 107 263 182 344 36 39 71 71 77 71 6 0 28 -16 49 -37z m1078 3 c0 -2 3
-11 6 -19 4 -11 -52 -54 -195 -151 -111 -75 -206 -136 -211 -136 -9 0 -11 5
-14 30 -1 9 390 278 407 279 4 1 7 -1 7 -3z m-364 -57 c8 -17 22 -49 29 -70
14 -38 14 -39 -18 -63 -83 -61 -81 -61 -110 -18 l-25 39 46 71 c26 40 50 72
54 72 4 0 15 -14 24 -31z m-635 -64 c23 -53 19 -75 -32 -164 l-32 -55 -13 26
c-7 14 -22 48 -33 76 l-20 51 45 56 c25 30 50 55 55 55 6 0 19 -20 30 -45z
m579 -220 c21 -44 46 -107 54 -140 l15 -59 -45 -73 c-25 -40 -49 -73 -54 -73
-4 0 -11 12 -15 28 -12 47 -83 192 -121 244 l-36 50 57 85 56 85 25 -34 c14
-18 43 -69 64 -113z m-690 38 c93 -208 303 -389 519 -449 34 -10 61 -20 61
-24 0 -3 -22 -27 -48 -53 l-48 -47 -71 20 c-219 61 -391 194 -502 391 -17 31
-31 64 -31 74 0 21 68 165 78 165 4 0 23 -35 42 -77z m810 -28 c0 -42 -19
-137 -30 -148 -4 -5 -11 6 -15 24 -4 18 -16 52 -26 75 l-18 42 37 25 c20 13
40 23 45 20 4 -2 7 -19 7 -38z m-281 -143 c69 -116 116 -251 92 -266 -16 -10
-129 22 -208 60 l-72 34 47 73 c26 40 56 94 66 120 10 26 22 47 26 47 5 0 27
-30 49 -68z m-631 -24 c98 -174 280 -318 480 -378 82 -25 82 -28 6 -81 -52
-35 -65 -36 -151 -4 -140 53 -284 161 -369 276 l-35 48 11 81 c10 76 18 110
25 110 2 0 16 -24 33 -52z m13 -283 c100 -103 222 -181 337 -216 23 -6 42 -15
42 -19 0 -3 -33 -24 -73 -45 l-74 -39 -57 28 c-31 15 -88 49 -127 74 -68 45
-70 49 -89 112 -18 58 -41 180 -35 180 2 0 36 -34 76 -75z m-127 -121 c9 -3
16 -10 16 -15 0 -15 -389 -269 -411 -269 -19 0 -19 2 -5 23 14 19 359 263 378
266 3 0 13 -2 22 -5z m184 -137 c9 -10 -16 -53 -104 -180 -110 -160 -154 -209
-154 -172 0 9 5 26 11 38 24 46 220 327 228 327 5 0 13 -6 19 -13z"/>
</g>
</svg>
